<svg width="4224" height="4537" viewBox="0 0 4224 4537" fill="none" xmlns="http://www.w3.org/2000/svg">
  <path d="M2111.97 0L0 753.142L322.127 3545.67L2111.97 4537L3901.82 3545.67L4223.95 753.142L2111.97 0Z" fill="#DD0031"/>
  <path d="M2111.97 0V503.607V501.338V2799.33V4537L3901.82 3545.67L4223.94 753.142L2111.97 0Z" fill="#C3002F"/>
  <path d="M2986.68 1475.46C2821.12 1399.89 2646.33 1346.28 2466.79 1316C2442.22 1359.78 2419.99 1404.83 2400.19 1450.96C2208.94 1422.23 2014.46 1422.23 1823.21 1450.96C1803.4 1404.84 1781.17 1359.79 1756.61 1316C1576.96 1346.54 1402.05 1400.27 1236.32 1475.85C907.298 1961.14 818.105 2434.37 862.701 2900.89C1055.39 3042.81 1271.05 3150.75 1500.33 3220C1551.96 3150.78 1597.64 3077.34 1636.9 3000.47C1562.34 2972.71 1490.38 2938.46 1421.84 2898.12C1439.88 2885.08 1457.52 2871.64 1474.57 2858.6C1673.98 2952.09 1891.63 3000.57 2112 3000.57C2332.36 3000.57 2550.02 2952.09 2749.43 2858.6C2766.67 2872.63 2784.32 2886.07 2802.15 2898.12C2733.49 2938.53 2661.39 2972.85 2586.7 3000.67C2625.91 3077.51 2671.6 3150.88 2723.27 3220C2952.74 3151.02 3168.58 3043.14 3361.29 2901.09C3413.62 2360.08 3271.9 1891.19 2986.68 1475.46ZM1693.39 2613.98C1569.11 2613.98 1466.44 2501.55 1466.44 2363.24C1466.44 2224.92 1565.54 2111.51 1692.99 2111.51C1820.44 2111.51 1922.31 2224.92 1920.13 2363.24C1917.95 2501.55 1820.04 2613.98 1693.39 2613.98ZM2530.61 2613.98C2406.14 2613.98 2303.86 2501.55 2303.86 2363.24C2303.86 2224.92 2402.97 2111.51 2530.61 2111.51C2658.26 2111.51 2759.34 2224.92 2757.16 2363.24C2754.98 2501.55 2657.26 2613.98 2530.61 2613.98Z" fill="white"/>
</svg>
