<svg width="250" height="250" viewBox="0 0 250 250" fill="none" xmlns="http://www.w3.org/2000/svg">
<path d="M147.983 29L214.406 171.194L221.31 62.7358L147.983 29Z" fill="url(#paint0_linear_8_10)"/>
<path d="M165.119 178.417H85.1912L74.9872 203.015L125.155 231.47L175.323 203.015L165.119 178.417Z" fill="url(#paint1_linear_8_10)"/>
<path d="M145.18 103.895C141.446 102.148 137.452 100.878 133.277 100.155C132.765 101.082 132.166 102.328 131.753 103.32C127.315 102.653 122.918 102.653 118.562 103.32C118.149 102.328 117.536 101.082 117.019 100.155C112.839 100.878 108.842 102.152 105.107 103.904C97.5745 115.287 95.5325 126.387 96.5535 137.329C101.55 141.061 106.391 143.327 111.151 144.81C112.327 143.193 113.375 141.473 114.278 139.661C112.558 139.007 110.911 138.201 109.355 137.265C109.767 136.959 110.171 136.639 110.562 136.31C120.054 140.75 130.369 140.75 139.748 136.31C140.143 136.639 140.547 136.959 140.955 137.265C139.395 138.205 137.743 139.012 136.022 139.666C136.925 141.473 137.97 143.198 139.149 144.815C143.914 143.331 148.76 141.065 153.756 137.329C154.954 124.645 151.71 113.646 145.18 103.895ZM115.571 130.6C112.722 130.6 110.385 127.94 110.385 124.7C110.385 121.46 112.672 118.795 115.571 118.795C118.471 118.795 120.808 121.456 120.758 124.7C120.762 127.94 118.471 130.6 115.571 130.6ZM134.739 130.6C131.889 130.6 129.552 127.94 129.552 124.7C129.552 121.46 131.839 118.795 134.739 118.795C137.638 118.795 139.975 121.456 139.925 124.7C139.925 127.94 137.638 130.6 134.739 130.6Z" fill="url(#paint2_linear_8_10)"/>
<path d="M102.326 29L29 62.7358L35.9036 171.194L102.326 29Z" fill="url(#paint3_linear_8_10)"/>
<defs>
<linearGradient id="paint0_linear_8_10" x1="26.2326" y1="279.625" x2="215.974" y2="-65.4385" gradientUnits="userSpaceOnUse">
<stop offset="0.256952" stop-color="#F11653"/>
<stop offset="0.424638" stop-color="#F637E3"/>
<stop offset="0.835885" stop-color="#8514F5"/>
</linearGradient>
<linearGradient id="paint1_linear_8_10" x1="26.2326" y1="279.625" x2="215.974" y2="-65.4385" gradientUnits="userSpaceOnUse">
<stop offset="0.256952" stop-color="#F11653"/>
<stop offset="0.424638" stop-color="#F637E3"/>
<stop offset="0.835885" stop-color="#8514F5"/>
</linearGradient>
<linearGradient id="paint2_linear_8_10" x1="26.2326" y1="279.625" x2="215.974" y2="-65.4385" gradientUnits="userSpaceOnUse">
<stop offset="0.256952" stop-color="#F11653"/>
<stop offset="0.424638" stop-color="#F637E3"/>
<stop offset="0.835885" stop-color="#8514F5"/>
</linearGradient>
<linearGradient id="paint3_linear_8_10" x1="26.2326" y1="279.625" x2="215.974" y2="-65.4385" gradientUnits="userSpaceOnUse">
<stop offset="0.256952" stop-color="#F11653"/>
<stop offset="0.424638" stop-color="#F637E3"/>
<stop offset="0.835885" stop-color="#8514F5"/>
</linearGradient>
</defs>
</svg>
