<svg width="1319" height="1416" viewBox="0 0 1319 1416" fill="none" xmlns="http://www.w3.org/2000/svg">
  <path d="M659.148 0L0 235.056L100.536 1106.6L659.148 1416L1217.76 1106.6L1318.3 235.056L659.148 0Z" fill="#DD0031"/>
  <path d="M659.146 0V157.176V156.468V873.672V1416L1217.76 1106.6L1318.29 235.056L659.146 0Z" fill="#C3002F"/>
  <path d="M933.045 502.625C933.045 502.625 854.354 441.034 761.455 434L753.081 450.762C837.057 471.332 875.597 500.738 915.886 536.938C846.443 501.493 777.927 468.312 658.5 468.312C539.073 468.312 470.556 501.493 401.114 536.938C441.403 500.738 487.252 468.038 563.919 450.762L555.545 434C458.082 443.179 383.955 502.625 383.955 502.625C383.955 502.625 296.083 630.027 281 880.062C369.541 982.194 504.068 983 504.068 983L532.209 945.531C484.438 928.924 430.559 899.295 383.955 845.75C439.516 887.783 523.372 931.531 658.5 931.531C793.628 931.531 877.484 887.783 933.045 845.75C886.458 899.295 832.579 928.924 784.791 945.531L812.932 983C812.932 983 947.459 982.194 1036 880.062C1020.92 630.027 933.045 502.625 933.045 502.625ZM546.966 811.438C513.78 811.438 486.909 780.728 486.909 742.812C486.909 704.897 513.78 674.188 546.966 674.188C580.152 674.188 607.023 704.897 607.023 742.812C607.023 780.728 580.152 811.438 546.966 811.438ZM770.034 811.438C736.848 811.438 709.977 780.728 709.977 742.812C709.977 704.897 736.848 674.188 770.034 674.188C803.22 674.188 830.091 704.897 830.091 742.812C830.091 780.728 803.22 811.438 770.034 811.438Z" fill="white"/>
</svg>
